<?xml version="1.0" standalone="no"?><!DOCTYPE svg PUBLIC "-//W3C//DTD SVG 1.1//EN" "http://www.w3.org/Graphics/SVG/1.1/DTD/svg11.dtd"><svg t="1534224821678" class="icon" style="" viewBox="0 0 1024 1024" version="1.1" xmlns="http://www.w3.org/2000/svg" p-id="2933" xmlns:xlink="http://www.w3.org/1999/xlink" width="200" height="200"><defs><style type="text/css"></style></defs><path d="M214.60224 997.832a30.744 30.744 0 0 1-18.104-5.88 30.76 30.76 0 0 1-12.192-30.088l54.04-313.832L9.36224 425.768a30.736 30.736 0 0 1 17-52.48l316.576-45.84L484.49024 41.864c10.328-20.928 44.736-20.928 55.064 0L681.14624 327.448l316.56 45.84a30.736 30.736 0 0 1 17 52.48L785.71424 648.032l54.072 313.832a30.8 30.8 0 0 1-12.184 30.088 30.904 30.904 0 0 1-32.368 2.376L512.02624 846.096 228.85824 994.32a30.864 30.864 0 0 1-14.256 3.512zM512.02624 780.64c4.896 0 9.792 1.168 14.264 3.512l242.344 126.84-46.272-268.512a30.688 30.688 0 0 1 8.888-27.288l195.784-190.016-270.688-39.216a30.672 30.672 0 0 1-23.12-16.752L512.02624 124.744 390.85024 369.208a30.672 30.672 0 0 1-23.12 16.752l-270.704 39.208 195.784 190.016a30.728 30.728 0 0 1 8.888 27.288l-46.232 268.52L497.76224 784.16A30.712 30.712 0 0 1 512.02624 780.64z" fill="#838384" p-id="2934"></path></svg>