<?xml version="1.0" standalone="no"?><!DOCTYPE svg PUBLIC "-//W3C//DTD SVG 1.1//EN" "http://www.w3.org/Graphics/SVG/1.1/DTD/svg11.dtd"><svg t="1534243205499" class="icon" style="" viewBox="0 0 1024 1024" version="1.1" xmlns="http://www.w3.org/2000/svg" p-id="1456" xmlns:xlink="http://www.w3.org/1999/xlink" width="200" height="200"><defs><style type="text/css"></style></defs><path d="M283.927273 344.436364h69.818182v479.418181H283.927273zM479.418182 344.436364h69.818182v479.418181h-69.818182zM674.909091 344.436364h69.818182v479.418181h-69.818182z" fill="#707070" p-id="1457"></path><path d="M1024 167.563636h-311.854545V41.890909c0-4.654545-4.654545-13.963636-4.654546-18.618182-4.654545-4.654545-9.309091-9.309091-18.618182-9.309091H335.127273c-13.963636 0-23.272727 9.309091-23.272728 23.272728v125.672727H0V232.727273H97.745455v735.418182c0 18.618182 13.963636 32.581818 32.581818 32.581818H889.018182c18.618182 0 32.581818-13.963636 32.581818-32.581818V232.727273h97.745455V167.563636h4.654545z m-642.327273 0V83.781818h265.309091v83.781818H381.672727zM856.436364 232.727273v702.836363H167.563636V232.727273h688.872728z" fill="#707070" p-id="1458"></path></svg>