<?xml version="1.0" standalone="no"?><!DOCTYPE svg PUBLIC "-//W3C//DTD SVG 1.1//EN" "http://www.w3.org/Graphics/SVG/1.1/DTD/svg11.dtd"><svg t="1535520970877" class="icon" style="" viewBox="0 0 1024 1024" version="1.1" xmlns="http://www.w3.org/2000/svg" p-id="4763" xmlns:xlink="http://www.w3.org/1999/xlink" width="200" height="200"><defs><style type="text/css"></style></defs><path d="M797.866667 460.8c-17.066667 0-34.133333 12.8-34.133333 34.133333l0 221.866667c0 29.866667-25.6 51.2-51.2 51.2L311.466667 768c-29.866667 0-51.2-25.6-51.2-51.2L260.266667 311.466667c0-29.866667 25.6-51.2 51.2-51.2l226.133333 0c17.066667 0 34.133333-12.8 34.133333-34.133333S554.666667 196.266667 537.6 196.266667L311.466667 196.266667c-64 0-119.466667 51.2-119.466667 119.466667l0 401.066667c0 64 51.2 119.466667 119.466667 119.466667l401.066667 0c64 0 119.466667-51.2 119.466667-119.466667l0-221.866667C827.733333 473.6 814.933333 460.8 797.866667 460.8z" p-id="4764"></path><path d="M375.466667 640c4.266667 4.266667 12.8 8.533333 21.333333 8.533333s17.066667-4.266667 21.333333-8.533333l375.466667-375.466667c12.8-12.8 12.8-34.133333 0-46.933333s-34.133333-12.8-46.933333 0L375.466667 597.333333C366.933333 610.133333 366.933333 627.2 375.466667 640z" p-id="4765"></path></svg>