<?xml version="1.0" standalone="no"?><!DOCTYPE svg PUBLIC "-//W3C//DTD SVG 1.1//EN" "http://www.w3.org/Graphics/SVG/1.1/DTD/svg11.dtd"><svg t="1534314459111" class="icon" style="" viewBox="0 0 1024 1024" version="1.1" xmlns="http://www.w3.org/2000/svg" p-id="2248" xmlns:xlink="http://www.w3.org/1999/xlink" width="200" height="200"><defs><style type="text/css"></style></defs><path d="M512 213.333c-93.867 0-170.667 76.8-170.667 170.667S418.133 554.667 512 554.667 682.667 477.867 682.667 384 605.867 213.333 512 213.333zM512 512c-70.4 0-128-57.6-128-128s57.6-128 128-128 128 57.6 128 128-57.6 128-128 128z m0-469.333c-187.733 0-341.333 153.6-341.333 341.333C170.667 661.333 512 981.333 512 981.333s341.333-320 341.333-597.333c0-187.733-153.6-341.333-341.333-341.333z m0 874.666S213.333 640 213.333 384c0-164.267 134.4-298.667 298.667-298.667 164.267 0 298.667 134.4 298.667 298.667C810.667 640 512 917.333 512 917.333z" fill="#707070" p-id="2249"></path></svg>