<?xml version="1.0" standalone="no"?><!DOCTYPE svg PUBLIC "-//W3C//DTD SVG 1.1//EN" "http://www.w3.org/Graphics/SVG/1.1/DTD/svg11.dtd"><svg t="1541573920982" class="icon" style="" viewBox="0 0 1024 1024" version="1.1" xmlns="http://www.w3.org/2000/svg" p-id="6247" xmlns:xlink="http://www.w3.org/1999/xlink" width="200" height="200"><defs><style type="text/css"></style></defs><path d="M511.990608 1024C225.275867 1024-7.154306 787.094147 0.169533 498.751887 7.222119 220.615532 238.262119-2.354682 516.500194 0.018784a508.294782 508.294782 0 0 1 277.186968 84.359777 16.512545 16.512545 0 0 1 4.340053 23.327784A16.478638 16.478638 0 0 1 775.445378 111.910771a479.033332 479.033332 0 0 0-742.555915 400.098621c0 264.098996 214.866522 478.965518 478.965518 478.965518s479.101145-214.866522 479.101145-478.965518A473.438732 473.438732 0 0 0 945.995891 309.315362a16.580358 16.580358 0 0 1 7.425559-21.801984 16.546451 16.546451 0 0 1 22.446211 7.662906A506.192569 506.192569 0 0 1 1023.981216 512.009392c0 282.306874-229.683734 511.990608-511.990608 511.990608z" p-id="6248"></path><path d="M927.00816 223.361972m-18.648664 0a18.648665 18.648665 0 1 0 37.297329 0 18.648665 18.648665 0 1 0-37.297329 0Z" p-id="6249"></path><path d="M511.651541 180.978644a325.503963 325.503963 0 1 0 325.503963 325.503962 325.503963 325.503963 0 0 0-325.503963-325.503962z m256.402184 353.985559h-56.929287v199.43899a28.54941 28.54941 0 0 1-28.54941 28.515504h-85.54651a28.515503 28.515503 0 0 1-28.481597-28.515504V620.510713h-113.960293v113.926387a28.413783 28.413783 0 0 1-28.413784 28.413783h-85.478696a28.44769 28.44769 0 0 1-28.481597-28.413783v-199.472897H255.283264a28.54941 28.54941 0 0 1-28.44769-28.54941 29.66833 29.66833 0 0 1 10.171999-21.903704c98.498855-82.325377 274.643968-234.464573 274.643968-234.464573s176.111206 152.139196 273.762395 234.566293a27.871277 27.871277 0 0 1 10.917946 21.93761 28.413783 28.413783 0 0 1-28.278157 28.413784z" p-id="6250"></path></svg>