<?xml version="1.0" standalone="no"?><!DOCTYPE svg PUBLIC "-//W3C//DTD SVG 1.1//EN" "http://www.w3.org/Graphics/SVG/1.1/DTD/svg11.dtd"><svg class="icon" width="200px" height="197.30px" viewBox="0 0 1038 1024" version="1.1" xmlns="http://www.w3.org/2000/svg"><path fill="#8a8a8a" d="M937.330058 647.286196 503.855506 647.286196c-46.609551 0-84.530209-37.921681-84.530209-84.531232l0-103.998609c0-46.611597 37.921681-84.531232 84.530209-84.531232l433.474552 0c46.610574 0 84.530209 37.919634 84.530209 84.531232l0 103.998609C1021.860267 609.365538 983.940632 647.286196 937.330058 647.286196zM503.855506 437.623036c-11.651364 0-21.132296 9.478885-21.132296 21.13332l0 103.998609c0 11.652388 9.480932 21.132296 21.132296 21.132296l433.474552 0c11.653411 0 21.132296-9.480932 21.132296-21.132296l0-103.998609c0-11.654434-9.479909-21.13332-21.132296-21.13332L503.855506 437.623036zM902.0526 212.06486c0-75.742055-61.620429-137.363508-137.362484-137.363508l-627.327632 0c-75.743078 0-137.363508 61.621453-137.363508 137.363508l0 597.376483c0 75.743078 61.620429 137.362484 137.363508 137.362484l627.327632 0c75.743078 0 137.362484-61.620429 137.362484-137.362484L902.0526 705.439664l0 0c-0.001023-17.503653-14.19428-31.696909-31.698956-31.696909-17.505699 0-31.698956 14.192234-31.699979 31.696909l0 0 0 104.001679c0 40.784892-33.180703 73.964572-73.964572 73.964572l-627.327632 0c-40.784892 0-73.964572-33.17968-73.964572-73.964572L63.396889 212.06486c0-40.783869 33.17968-73.964572 73.964572-73.964572l627.327632 0c40.783869 0 73.964572 33.180703 73.964572 73.964572l0 104.000656 0.002047 0c0 0.01228-0.002047 0.023536-0.002047 0.036839 0 17.505699 14.192234 31.698956 31.699979 31.698956 17.505699 0 31.698956-14.193257 31.698956-31.698956 0-0.01228-0.002047-0.023536-0.002047-0.036839l0.002047 0L902.0526 212.06486zM870.353644 510.75259m-31.698956 0a30.977 30.977 0 1 0 63.397912 0 30.977 30.977 0 1 0-63.397912 0Z" /></svg>