<?xml version="1.0" standalone="no"?><!DOCTYPE svg PUBLIC "-//W3C//DTD SVG 1.1//EN" "http://www.w3.org/Graphics/SVG/1.1/DTD/svg11.dtd"><svg class="icon" width="200px" height="200.00px" viewBox="0 0 1024 1024" version="1.1" xmlns="http://www.w3.org/2000/svg"><path fill="#8a8a8a" d="M287.461549 512.01535l-62.002123 0c-17.656125 0-31.989575-14.332427-31.989575-31.989575 0-17.661242 14.33345-31.993668 31.989575-31.993668l62.002123 0c17.662265 0 31.994692 14.332427 31.994692 31.993668C319.456241 497.682923 305.123814 512.01535 287.461549 512.01535L287.461549 512.01535zM882.930589 128.110773 141.931035 128.110773c-42.710754 0-77.423347 34.678824-77.423347 77.358879l0 154.585751 0 8.473999 0 457.904964c0 38.298258 31.92613 69.456908 71.15048 69.456908l753.511519 0c39.251979 0 71.149457-31.15865 71.149457-69.456908L960.319144 368.529401 960.319144 205.469652C960.290491 162.789597 925.576875 128.110773 882.930589 128.110773L882.930589 128.110773zM896.307248 205.469652l0 131.071198L672.870386 336.540849 672.870386 192.092993l210.060203 0C890.293277 192.092993 896.307248 198.106963 896.307248 205.469652L896.307248 205.469652zM447.104479 192.092993l161.782663 0L608.887143 552.455387l-70.767763-28.216645c-7.708566-3.103688-16.34527-3.042289-23.99346 0.127913l-67.020416 27.511587L447.105502 192.092993 447.104479 192.092993zM128.490931 205.469652c0-7.361665 6.014994-13.375635 13.440104-13.375635l241.185085 0 0 144.446833L128.490931 336.540849 128.490931 205.469652 128.490931 205.469652zM889.141034 831.905984 135.658168 831.905984c-4.222161 0-7.167237-2.87856-7.167237-5.472642L128.490931 400.524093l254.625188 0 0 199.12106c0 10.650571 5.310959 20.633946 14.176884 26.585495 5.339612 3.547803 11.544941 5.40408 17.817808 5.40408 4.095271 0 8.253988-0.76748 12.154831-2.39863l99.209536-40.72861 102.567004 40.856523c9.851369 3.963265 21.020756 2.717901 29.817096-3.231601 8.762571-5.984295 14.010085-15.871479 14.010085-26.488281L672.869363 400.524093 896.307248 400.524093l0 425.90925C896.307248 829.028447 893.363196 831.905984 889.141034 831.905984L889.141034 831.905984zM889.141034 831.905984" /></svg>