<?xml version="1.0" standalone="no"?><!DOCTYPE svg PUBLIC "-//W3C//DTD SVG 1.1//EN" "http://www.w3.org/Graphics/SVG/1.1/DTD/svg11.dtd"><svg t="1541575757942" class="icon" style="" viewBox="0 0 1024 1024" version="1.1" xmlns="http://www.w3.org/2000/svg" p-id="13471" xmlns:xlink="http://www.w3.org/1999/xlink" width="200" height="200"><defs><style type="text/css"></style></defs><path d="M512 1024C229.248 1024 0 794.752 0 512S229.248 0 512 0s512 229.248 512 512-229.248 512-512 512z m0-938.666667C276.352 85.333333 85.333333 276.352 85.333333 512s191.018667 426.666667 426.666667 426.666667 426.666667-191.018667 426.666667-426.666667S747.648 85.333333 512 85.333333zM403.498667 560.384l212.650666 126.08c7.637333-2.218667 15.530667-3.797333 23.850667-3.797333a85.333333 85.333333 0 1 1-83.285333 67.114666l-194.773334-115.498666a41.514667 41.514667 0 0 1-12.458666-11.392A84.608 84.608 0 0 1 298.666667 640H256a85.333333 85.333333 0 0 1-85.333333-85.333333v-42.666667a85.333333 85.333333 0 0 1 85.333333-85.333333h42.666667c20.053333 0 38.229333 7.210667 52.821333 18.773333l207.36-119.722667 0.554667-0.170666A85.12 85.12 0 0 1 554.666667 298.666667a85.333333 85.333333 0 1 1 85.333333 85.333333c-7.68 0-14.976-1.322667-22.058667-3.242667a41.514667 41.514667 0 0 1-16.426666 18.858667L384 525.184V554.666667l-0.042667 0.597333a39.466667 39.466667 0 0 1 19.541334 5.12z" p-id="13472"></path></svg>