<?xml version="1.0" standalone="no"?><!DOCTYPE svg PUBLIC "-//W3C//DTD SVG 1.1//EN" "http://www.w3.org/Graphics/SVG/1.1/DTD/svg11.dtd"><svg t="1534406008724" class="icon" style="" viewBox="0 0 1024 1024" version="1.1" xmlns="http://www.w3.org/2000/svg" p-id="4594" xmlns:xlink="http://www.w3.org/1999/xlink" width="16" height="16"><defs><style type="text/css"></style></defs><path d="M496.012 84.882c-117.454 0-212.669 95.216-212.669 212.67 0 117.455 95.215 212.67 212.669 212.67 117.455 0 212.671-95.215 212.671-212.67C708.683 180.098 613.467 84.882 496.012 84.882zM496.012 463.796c-91.813 0-166.243-74.43-166.243-166.244 0-91.813 74.43-166.244 166.243-166.244 91.814 0 166.244 74.431 166.244 166.244C662.256 389.366 587.826 463.796 496.012 463.796z" p-id="4595"></path><path d="M850.115 866.49c0-195.566-158.537-354.102-354.104-354.102-195.564 0-354.102 158.535-354.102 354.102l0.222 0c0.264 12.754 10.666 23.018 23.483 23.018 12.818 0 23.22-10.264 23.484-23.018l0.024 0c0-169.49 137.399-306.889 306.888-306.889C665.502 559.602 802.9 697 802.9 866.49l0.198 0 0 0.002c0 12.982 10.523 23.508 23.507 23.508 12.985 0 23.51-10.525 23.51-23.508L850.115 866.49 850.115 866.49z" p-id="4596"></path></svg>