<?xml version="1.0" standalone="no"?><!DOCTYPE svg PUBLIC "-//W3C//DTD SVG 1.1//EN" "http://www.w3.org/Graphics/SVG/1.1/DTD/svg11.dtd"><svg t="1534406955765" class="icon" style="" viewBox="0 0 1025 1024" version="1.1" xmlns="http://www.w3.org/2000/svg" p-id="5551" xmlns:xlink="http://www.w3.org/1999/xlink" width="16.015625" height="16"><defs><style type="text/css"></style></defs><path d="M996.465778 679.992889c-7.850667 0-15.587556-3.242667-21.276444-9.557333L547.441778 189.326222c-9.614222-10.808889-22.186667-16.725333-35.384889-16.725333 0 0 0 0 0 0-13.198222 0-25.827556 5.973333-35.384889 16.782222l-426.894222 481.109333c-10.410667 11.776-28.444444 12.743111-40.163556 2.389333-11.776-10.467556-12.8-28.387556-2.389333-40.163556L434.062222 151.608889C454.599111 128.455111 482.304 115.712 512 115.712c0 0 0 0 0.056889 0 29.696 0 57.400889 12.743111 77.880889 35.84l427.804444 481.109333c10.467556 11.719111 9.386667 29.696-2.389333 40.163556C1009.948444 677.603556 1003.178667 679.992889 996.465778 679.992889z" p-id="5552"></path><path d="M853.333333 625.777778l0 284.444444c0 31.402667-25.486222 56.888889-56.888889 56.888889l-113.777778 0 0-227.555556c0-62.805333-51.029333-113.777778-113.777778-113.777778L455.111111 625.777778c-62.748444 0-113.777778 50.972444-113.777778 113.777778l0 227.555556L227.555556 967.111111c-31.345778 0-56.888889-25.486222-56.888889-56.888889l0-284.444444L113.777778 625.777778l0 284.444444c0 62.748444 51.029333 113.777778 113.777778 113.777778l113.777778 0 56.888889 0 0-56.888889 0-227.555556c0-31.345778 25.543111-56.888889 56.888889-56.888889l113.777778 0c31.402667 0 56.888889 25.543111 56.888889 56.888889l0 227.555556 0 56.888889 56.888889 0 113.777778 0c62.748444 0 113.777778-51.029333 113.777778-113.777778l0-284.444444L853.333333 625.777778z" p-id="5553"></path></svg>