<?xml version="1.0" standalone="no"?><!DOCTYPE svg PUBLIC "-//W3C//DTD SVG 1.1//EN" "http://www.w3.org/Graphics/SVG/1.1/DTD/svg11.dtd"><svg t="1533974991304" class="icon" style="" viewBox="0 0 1024 1024" version="1.1" xmlns="http://www.w3.org/2000/svg" p-id="4896" xmlns:xlink="http://www.w3.org/1999/xlink" width="128" height="128"><defs><style type="text/css"></style></defs><path d="M609.536 498.432c74.325333-36.245333 125.674667-112.298667 125.674667-200.533333C735.210667 174.570667 635.242667 74.666667 512 74.666667c-123.264 0-223.253333 99.904-223.253333 223.210666 0 88.256 51.370667 164.309333 125.717333 200.533334-144.533333 42.197333-250.261333 175.488-250.261333 333.653333 0 6.229333 0.597333 12.245333 0.938666 18.410667a656.96 656.96 0 0 0 346.88 98.858666 656.96 656.96 0 0 0 346.901334-98.858666c0.256-6.165333 0.874667-12.181333 0.874666-18.410667 0-158.144-105.706667-291.434667-250.261333-333.632z" fill="#FF5D92" p-id="4897"></path><path d="M512.021333 953.536a663.317333 663.317333 0 0 1-349.077333-99.477333 4.202667 4.202667 0 0 1-1.984-3.328l-0.362667-5.738667a185.344 185.344 0 0 1-0.576-12.906667c0-151.829333 99.584-287.957333 243.413334-334.634666-73.6-39.957333-118.869333-115.498667-118.869334-199.552 0-125.397333 102.037333-227.434667 227.434667-227.434667 125.376 0 227.370667 102.037333 227.370667 227.434667 0 84.074667-45.248 159.616-118.826667 199.552 143.850667 46.677333 243.434667 182.805333 243.434667 334.634666 0 4.010667-0.277333 7.978667-0.512 11.968-0.149333 2.218667-0.298667 4.416-0.384 6.677334a4.16 4.16 0 0 1-2.005334 3.370666 663.424 663.424 0 0 1-349.056 99.434667zM169.173333 848.085333c103.488 63.552 221.994667 97.088 342.848 97.088s239.36-33.536 342.805334-97.066666l0.298666-4.650667c0.256-3.754667 0.490667-7.552 0.490667-11.370667 0-151.573333-101.717333-287.146667-247.253333-329.642666a4.181333 4.181333 0 1 1-0.725334-7.765334c76.074667-37.056 123.328-112.469333 123.328-196.778666 0-120.789333-98.218667-219.050667-219.050666-219.050667S292.885333 177.109333 292.885333 297.898667c0 84.288 47.253333 159.701333 123.349334 196.778666a4.181333 4.181333 0 0 1-0.661334 7.765334C269.994667 544.938667 168.341333 680.533333 168.341333 832.085333c0 4.16 0.277333 8.256 0.554667 12.330667l0.277333 3.669333z" fill="#FF5D92" p-id="4898"></path><path d="M301.888 488.874667c-64.021333-33.749333-108.266667-104.597333-108.266667-186.816 0-68.501333 30.741333-129.045333 77.973334-166.954667a151.893333 151.893333 0 0 0-15.957334-0.874667c-89.088 0-161.344 78.122667-161.344 174.528 0 68.970667 37.12 128.426667 90.858667 156.757334C80.682667 498.496 4.266667 602.666667 4.266667 726.336c0 4.885333 0.448 9.557333 0.682666 14.421333 25.877333 17.322667 53.333333 31.829333 81.984 43.626667 6.101333-140.544 94.848-257.6 214.954667-295.509333z" fill="#FF5D92" p-id="4899"></path><path d="M86.933333 788.650667a3.882667 3.882667 0 0 1-1.621333-0.341334 474.026667 474.026667 0 0 1-82.730667-44.010666 4.309333 4.309333 0 0 1-1.877333-3.328l-0.256-4.501334A144.576 144.576 0 0 1 0 726.336C0 608 71.381333 501.802667 174.72 464.512c-52.48-31.658667-84.693333-90.453333-84.693333-155.776 0-98.581333 74.304-178.794667 165.632-178.794667 5.290667 0 10.794667 0.298667 16.405333 0.896a4.224 4.224 0 0 1 3.648 3.050667 4.202667 4.202667 0 0 1-1.429333 4.522667c-48.533333 38.976-76.373333 98.602667-76.373334 163.626666 0 78.442667 40.618667 148.586667 105.984 183.061334a4.288 4.288 0 0 1 2.261334 4.16 4.288 4.288 0 0 1-2.965334 3.690666c-120.896 38.186667-206.08 155.392-211.989333 291.626667a4.309333 4.309333 0 0 1-1.962667 3.413333 4.437333 4.437333 0 0 1-2.304 0.661334zM9.088 738.325333a460.202667 460.202667 0 0 0 73.898667 39.744c8.106667-133.76 90.794667-248.661333 208.405333-290.218666-63.168-37.376-102.037333-107.669333-102.037333-185.834667 0-63.957333 25.92-122.901333 71.509333-163.456a143.530667 143.530667 0 0 0-5.205333-0.085333c-86.613333 0-157.077333 76.373333-157.077334 170.24 0 65.557333 33.941333 124.181333 88.576 152.981333a4.288 4.288 0 0 1 2.261334 4.16 4.288 4.288 0 0 1-2.965334 3.690667C81.706667 502.613333 8.576 608.213333 8.576 726.314667c0 3.242667 0.192 6.421333 0.405333 9.578666l0.106667 2.432z" fill="#FF5D92" p-id="4900"></path><path d="M722.133333 488.874667c64-33.749333 108.245333-104.597333 108.245334-186.816 0-68.501333-30.741333-129.045333-77.952-166.954667a151.253333 151.253333 0 0 1 15.957333-0.874667c89.088 0 161.344 78.122667 161.344 174.528 0 68.970667-37.12 128.426667-90.88 156.757334 104.469333 32.981333 180.885333 137.173333 180.885333 260.842666 0 4.885333-0.448 9.557333-0.682666 14.4a466.517333 466.517333 0 0 1-81.984 43.669334c-6.101333-140.586667-94.848-257.642667-214.933334-295.552z" fill="#FF5D92" p-id="4901"></path><path d="M937.066667 788.650667a4.352 4.352 0 0 1-2.261334-0.64 4.416 4.416 0 0 1-2.005333-3.413334c-5.888-136.256-91.114667-253.461333-211.989333-291.626666a4.352 4.352 0 0 1-2.986667-3.690667 4.352 4.352 0 0 1 2.24-4.16c65.365333-34.474667 106.005333-104.618667 106.005333-183.061333 0-65.024-27.84-124.672-76.373333-163.626667a4.16 4.16 0 0 1-1.386667-4.522667 4.266667 4.266667 0 0 1 3.648-3.050666c5.674667-0.597333 11.050667-0.896 16.426667-0.896 91.306667 0 165.632 80.213333 165.632 178.794666 0 65.301333-32.256 124.096-84.714667 155.776C952.618667 501.781333 1024 608 1024 726.336c0 3.477333-0.213333 6.869333-0.448 10.282667l-0.256 4.330666a4.16 4.16 0 0 1-1.898667 3.285334A467.157333 467.157333 0 0 1 938.666667 788.266667a3.285333 3.285333 0 0 1-1.6 0.384z m-204.458667-300.778667c117.610667 41.536 200.32 156.48 208.405333 290.218667a465.728 465.728 0 0 0 73.941334-39.744l0.128-2.261334c0.213333-3.221333 0.448-6.442667 0.448-9.728 0-118.101333-73.173333-223.68-177.92-256.768a4.288 4.288 0 0 1-0.725334-7.850666c54.656-28.821333 88.554667-87.445333 88.554667-152.981334 0-93.866667-70.464-170.24-157.056-170.24-1.749333 0-3.456 0.021333-5.205333 0.085334 45.568 40.533333 71.509333 99.52 71.509333 163.456-0.042667 78.144-38.890667 148.437333-102.08 185.813333z" fill="#FF5D92" p-id="4902"></path></svg>