<?xml version="1.0" standalone="no"?><!DOCTYPE svg PUBLIC "-//W3C//DTD SVG 1.1//EN" "http://www.w3.org/Graphics/SVG/1.1/DTD/svg11.dtd"><svg class="icon" width="200px" height="200.00px" viewBox="0 0 1024 1024" version="1.1" xmlns="http://www.w3.org/2000/svg"><path d="M204.8 0h614.4c112.64 0 204.8 92.16 204.8 204.8v614.4c0 112.64-92.16 204.8-204.8 204.8h-614.4c-112.64 0-204.8-92.16-204.8-204.8V204.8c0-112.64 92.16-204.8 204.8-204.8z" fill="#52A6EE" /><path d="M684.032 301.056c0-10.24 4.096-18.432 10.24-24.576 6.144-6.144 16.384-10.24 26.624-10.24s18.432 4.096 26.624 10.24c6.144 6.144 10.24 16.384 10.24 24.576 0 10.24-4.096 18.432-10.24 24.576-6.144 6.144-16.384 10.24-26.624 10.24s-18.432-4.096-26.624-10.24c-6.144-6.144-10.24-14.336-10.24-24.576z m-98.304-59.392c0-12.288 4.096-22.528 12.288-30.72 8.192-8.192 20.48-12.288 30.72-12.288 12.288 0 22.528 4.096 30.72 12.288 8.192 8.192 12.288 18.432 12.288 30.72s-4.096 22.528-12.288 30.72c-8.192 8.192-20.48 12.288-30.72 12.288-12.288 0-22.528-4.096-30.72-12.288-6.144-8.192-12.288-20.48-12.288-30.72z m-133.12-20.48c0-12.288 6.144-26.624 14.336-36.864 10.24-10.24 22.528-14.336 36.864-14.336s26.624 6.144 36.864 14.336c10.24 10.24 14.336 22.528 14.336 36.864 0 12.288-6.144 26.624-14.336 34.816-10.24 10.24-22.528 14.336-36.864 14.336s-26.624-6.144-36.864-14.336c-8.192-8.192-14.336-20.48-14.336-34.816z m-165.888 8.192c0-16.384 6.144-34.816 18.432-45.056 12.288-12.288 28.672-18.432 47.104-18.432 16.384 0 34.816 6.144 47.104 18.432 12.288 12.288 18.432 28.672 18.432 45.056 0 16.384-6.144 34.816-18.432 45.056-12.288 12.288-28.672 18.432-47.104 18.432-16.384 0-34.816-6.144-47.104-18.432-10.24-12.288-18.432-28.672-18.432-45.056z m309.248 79.872H423.936c-59.392 4.096-104.448 51.2-104.448 110.592 0 38.912 20.48 73.728 53.248 94.208l2.048 2.048s63.488 32.768-2.048 190.464c-6.144 12.288-8.192 26.624-8.192 40.96 0 61.44 51.2 110.592 112.64 110.592 26.624 0 51.2-10.24 71.68-24.576 112.64-90.112 184.32-229.376 186.368-382.976v-4.096c-4.096-73.728-63.488-135.168-139.264-137.216z" fill="#FFFFFF" /></svg>