<?xml version="1.0" standalone="no"?><!DOCTYPE svg PUBLIC "-//W3C//DTD SVG 1.1//EN" "http://www.w3.org/Graphics/SVG/1.1/DTD/svg11.dtd"><svg class="icon" width="200px" height="200.00px" viewBox="0 0 1024 1024" version="1.1" xmlns="http://www.w3.org/2000/svg"><path fill="#e7621e" d="M824.079 545.816c-0.018-15.254-0.018-30.509-0.036-45.763l-0.216-223.981c-0.018-23.951-9.864-44.865-30.688-57.747-5.965-3.683-12.164-7.007-18.237-10.493-33.114-19.081-66.228-38.163-99.342-57.226-35.144-20.249-70.306-40.516-105.451-60.766-8.642-4.977-17.231-10.026-25.909-14.913-20.627-11.625-43.751-12.038-64.521-0.413-61.844 34.605-122.735 71.025-184.076 106.511-21.669 12.541-43.804 24.508-65.096 37.66-20.321 12.541-30.796 32.934-30.886 56.561-0.054 10.78 0.018 21.579 0.018 32.359 0.09 78.553 0.162 157.089 0.234 235.624 0 5.57 0.018 11.104 0.018 16.656v1.581c0.036 0.791 0.072 1.563 0.126 2.318 0 0.09 0.018 0.162 0.018 0.251 0 0.036 0 0.054 0.018 0.09 1.779 23.681 14.967 41.541 35.324 53.273a28179.403 28179.403 0 0 1 31.461 18.129l109.206 62.904c31.084 17.913 62.167 35.827 93.269 53.74 11.319 6.522 21.723 12.667 35.144 14.464 17.842 2.39 32.755-4.24 47.524-12.793A723964.131 723964.131 0 0 0 752.03 638.096c26.196-15.146 61.287-29.035 69.893-61.017 2.749-10.205 2.174-20.824 2.156-31.263zM510.997 713.847v-0.018h-0.018c-0.108-0.09-0.521-0.323-1.186-0.737l2.048 0.485 0.216 0.054c0.054-0.018 0.144-0.018 0.233-0.018-0.054 0.018-0.108 0.036-0.162 0.036 0.126 0.036 0.234 0.054 0.359 0.09-0.753 0.144-3.089 0.414-1.49 0.108z m172.864-277.488c-5.103 5.103-12.146 8.265-19.89 8.265H539.997v123.975c0 15.488-12.667 28.155-28.137 28.155-7.744 0-14.787-3.162-19.89-8.265-5.103-5.103-8.265-12.146-8.265-19.89V444.624H359.73c-15.488 0-28.155-12.667-28.155-28.137 0-7.744 3.162-14.787 8.265-19.89 5.103-5.103 12.146-8.265 19.89-8.265h123.975V264.357c0-15.488 12.667-28.155 28.155-28.155 7.726 0 14.769 3.162 19.872 8.265 5.103 5.103 8.265 12.146 8.265 19.89v123.975h123.975c15.488 0 28.155 12.667 28.155 28.155-0.001 7.744-3.163 14.769-8.266 19.872z m84.357-170.061c0.108 0.198 0.216 0.449 0.359 0.755-0.269-0.359-1.186-1.168-1.617-1.563-0.431-0.396-0.377-0.396 1.258 0.808z m0.198 300.127l0.108-0.27c-0.036 0.036-0.072 0.072-0.108 0.09-0.862 1.258-1.599 1.222 0 0 0 0 0.018-0.018 0.018-0.036 0.054-0.072 0.126-0.162 0.198-0.27a0.137 0.137 0 0 0 0.036-0.09 0.377 0.377 0 0 1 0.072-0.108c-0.126 0.289-0.234 0.504-0.324 0.684z m1.509-296.803c0.018-2.282 0.108-0.97 0.108 0.198v0.036c0.018 0.467 0 0.898-0.036 1.06-0.018-0.072-0.054-0.144-0.072-0.216-0.467-1.419-0.683-2.174-0.629-2.264 0.018-0.09 0.234 0.305 0.629 1.186z m0.611 293.012c0 0.916-0.162 2.012-0.252 0.575-0.323 0.665-0.665 1.204-0.521 0.377 0.018-0.198 0.09-0.467 0.18-0.826 0.108-0.395 0.198-0.665 0.27-0.827 0.198-0.467 0.287-0.198 0.305 0.287 0.377-0.574 0.252-0.161 0.018 0.414z"  /><path fill="#e7621e" d="M512.578 713.578a4.616 4.616 0 0 1-0.449 0.072c0.126 0.036 0.234 0.054 0.359 0.09-0.755 0.144-3.09 0.413-1.491 0.108v-0.018s0 0.018-0.018 0c-0.108-0.09-0.521-0.323-1.186-0.737l2.048 0.485 0.216 0.054c0.126-0.018 0.306-0.036 0.521-0.054zM768.416 566.245c-0.863 1.258-1.599 1.222 0 0zM766.961 265.489c-0.431-0.395-0.377-0.395 1.258 0.809 0.108 0.198 0.216 0.449 0.359 0.755-0.27-0.36-1.186-1.168-1.617-1.564z"  /><path fill="#e7621e" d="M768.667 565.85a0.377 0.377 0 0 1 0.072-0.108 61.014 61.014 0 0 1-0.539 1.186c0.036-0.09 0.162-0.395 0.323-0.773-0.036 0.036-0.072 0.072-0.108 0.09 0 0 0.018-0.018 0.018-0.036 0.054-0.072 0.126-0.162 0.198-0.27a0.133 0.133 0 0 0 0.036-0.089zM769.925 270.7c-0.467-1.419-0.683-2.174-0.629-2.264 0.018-0.09 0.234 0.305 0.629 1.186 0.018-2.282 0.108-0.97 0.108 0.198v0.036c0.018 0.467 0 0.898-0.036 1.06-0.018-0.072-0.054-0.144-0.072-0.216zM770.536 562.634c0 0.916-0.162 2.012-0.252 0.575-0.323 0.665-0.665 1.204-0.521 0.377 0.018-0.198 0.09-0.467 0.18-0.826 0.108-0.395 0.198-0.665 0.27-0.827 0.198-0.467 0.287-0.198 0.305 0.287 0.377-0.574 0.252-0.161 0.018 0.414zM512.129 713.65c0.126 0.036 0.234 0.054 0.359 0.09-0.755 0.144-3.09 0.413-1.491 0.108v-0.018s0 0.018-0.018 0c-0.108-0.09-0.521-0.323-1.186-0.737l2.048 0.485 0.216 0.054c0.018 0.018 0.054 0.018 0.072 0.018zM766.961 265.489c-0.431-0.395-0.377-0.395 1.258 0.809 0.108 0.198 0.216 0.449 0.359 0.755-0.27-0.36-1.186-1.168-1.617-1.564z"  /><path fill="#e7621e" d="M768.667 565.85a0.377 0.377 0 0 1 0.072-0.108 61.014 61.014 0 0 1-0.539 1.186c0.036-0.09 0.162-0.395 0.323-0.773-0.036 0.036-0.072 0.072-0.108 0.09 0 0 0.018-0.018 0.018-0.036 0.054-0.072 0.126-0.162 0.198-0.27a0.133 0.133 0 0 0 0.036-0.089zM769.925 270.7c-0.467-1.419-0.683-2.174-0.629-2.264 0.018-0.09 0.234 0.305 0.629 1.186 0.018-2.282 0.108-0.97 0.108 0.198v0.036c0.018 0.467 0 0.898-0.036 1.06-0.018-0.072-0.054-0.144-0.072-0.216zM770.536 562.634c0 0.916-0.162 2.012-0.252 0.575-0.323 0.665-0.665 1.204-0.521 0.377 0.018-0.198 0.09-0.467 0.18-0.826 0.108-0.395 0.198-0.665 0.27-0.827 0.198-0.467 0.287-0.198 0.305 0.287 0.377-0.574 0.252-0.161 0.018 0.414z"  /><path fill="#e7621e" d="M612.261 801.582c-0.018 0.09-0.018 0.198-0.018 0.323a40.146 40.146 0 0 1-0.629-1.24c0.288 0.539 0.504 0.809 0.647 0.917zM612.261 801.582c0.072-2.084 0.611 0.431 0 0zM612.243 801.905c0.575 1.15 1.168 2.282 1.761 3.414-1.168 0.683-2.336 1.383-3.54 1.994a9.423 9.423 0 0 1-0.395 0.737c0-0.072 0.144-0.359 0.341-0.701-0.036 0.036-0.09 0.054-0.126 0.072-0.144 0.072-0.27 0.162-0.413 0.216 0.09-0.072 0.413-0.377 0.755-0.683 0.036-0.054 0.072-0.09 0.108-0.144 0-0.018 0.018-0.036 0.018-0.054 0.287-0.611 1.024-2.354 1.383-2.965 0.072-0.413 0.126-0.755 0.126-0.826-0.018-0.431-0.018-0.772-0.018-1.06zM790.516 704.612c-0.09 0.054-0.198 0.108-0.288 0.162 0.072 0.036-0.054 0.126-0.467 0.252-0.324 0.18-0.629 0.359-0.934 0.557a398.4 398.4 0 0 1-2.947 1.887c-0.413-0.755-0.791-1.509-1.186-2.264-0.359-0.683-0.773-1.366-1.15-2.03 0.09 0.054 0.18 0.108 0.252 0.162 0.072 0.054 0.144 0.108 0.216 0.144 0.036 0.018 0.072 0.054 0.108 0.09 0.647 0.431 1.258 0.862 1.922 1.294 1.258-0.036 3.522-0.234 4.079-0.126 0.234-0.09 0.431-0.18 0.539-0.216-0.054 0.034-0.09 0.07-0.144 0.088z"  /><path fill="#e7621e" d="M895.607 793.532c-3.108-10.798-10.547-21.148-16.045-30.796-8.714-15.29-17.446-30.581-26.16-45.871-6.989-12.272-13.997-24.543-21.004-36.815-12.182-21.381-35.557-34.713-60.317-25.873-7.762 2.767-14.823 7.349-21.956 11.409-12.092 6.9-24.202 13.799-36.294 20.698-31.012 17.698-62.023 35.378-93.035 53.076-22.405 12.775-53.83 24.615-60.963 52.034-4.689 18.057 3.162 32.79 11.643 47.667 8.139 14.266 16.261 28.532 24.4 42.78 8.121 14.248 16.243 28.478 24.364 42.708 8.535 14.967 17.967 28.137 35.953 32.844 15.757 4.115 33.419-0.593 45.17-11.804a0.489 0.489 0 0 0 0.18-0.162 18.949 18.949 0 0 0 2.497-2.587c0.575-0.719 1.15-1.455 1.743-2.174a0.323 0.323 0 0 0 0.09-0.126c16.656-20.932 33.329-41.864 49.985-62.796 2.39-2.983 4.815-5.929 7.151-8.966 0.198-0.252 0.539-0.557 0.88-0.845 0.449-0.126 0.97-0.27 1.384-0.323l3.557-0.485c15.021-2.102 30.041-4.186 45.062-6.289 14.194-1.976 28.406-3.809 42.565-5.929 28.459-4.256 47.127-33.687 39.15-61.375z m-110.913-88.327c-0.359-0.683-0.773-1.366-1.15-2.03 0.09 0.054 0.18 0.108 0.252 0.162 0.072 0.054 0.144 0.108 0.216 0.144 0.036 0.018 0.072 0.054 0.108 0.09 0.647 0.431 1.258 0.862 1.922 1.294 1.258-0.036 3.522-0.234 4.079-0.126 0.234-0.09 0.431-0.18 0.539-0.216-0.054 0.036-0.09 0.072-0.144 0.09-0.09 0.054-0.198 0.108-0.288 0.162 0.072 0.036-0.054 0.126-0.467 0.252-0.324 0.18-0.629 0.359-0.934 0.557a398.4 398.4 0 0 1-2.947 1.887c-0.413-0.757-0.79-1.512-1.186-2.266zM610.626 806.954c0.036-0.054 0.072-0.09 0.108-0.144 0-0.018 0.018-0.036 0.018-0.054 0.287-0.611 1.024-2.354 1.383-2.965 0.072-0.413 0.126-0.755 0.126-0.826-0.018-0.431-0.018-0.773-0.018-1.06a40.146 40.146 0 0 1-0.629-1.24c0.287 0.539 0.503 0.809 0.647 0.916 0.072-2.084 0.611 0.431 0 0-0.018 0.09-0.018 0.198-0.018 0.323 0.575 1.15 1.168 2.282 1.761 3.414-1.168 0.683-2.336 1.383-3.54 1.994a9.423 9.423 0 0 1-0.395 0.737c0-0.072 0.144-0.359 0.341-0.701-0.036 0.036-0.09 0.054-0.126 0.072-0.144 0.072-0.27 0.162-0.413 0.216 0.091-0.071 0.414-0.377 0.755-0.682z"  /><path fill="#e7621e" d="M612.261 801.582c0.072-2.084 0.611 0.431 0 0zM612.243 801.905c0.575 1.15 1.168 2.282 1.761 3.414-1.168 0.683-2.336 1.383-3.54 1.994-0.018 0.018-0.036 0.036-0.054 0.036-0.036 0.036-0.09 0.054-0.126 0.072-0.144 0.072-0.27 0.162-0.413 0.216 0.09-0.072 0.413-0.377 0.755-0.683 0.018 0 0.036-0.018 0.054-0.036 0-0.018 0.018-0.018 0.018-0.036 0.018-0.018 0.018-0.036 0.036-0.072 0-0.018 0.018-0.036 0.018-0.054 0.287-0.611 1.024-2.354 1.383-2.965 0.072-0.413 0.126-0.755 0.126-0.826-0.018-0.431-0.018-0.772-0.018-1.06zM790.516 704.612c-0.09 0.054-0.198 0.108-0.288 0.162 0.072 0.036-0.054 0.126-0.467 0.252-0.324 0.18-0.629 0.359-0.934 0.557a398.4 398.4 0 0 1-2.947 1.887c-0.413-0.755-0.791-1.509-1.186-2.264-0.359-0.683-0.773-1.366-1.15-2.03 0.09 0.054 0.18 0.108 0.252 0.162 0.072 0.054 0.144 0.108 0.216 0.144 0.036 0.018 0.072 0.054 0.108 0.09 0.647 0.431 1.258 0.862 1.922 1.294 1.258-0.036 3.522-0.234 4.079-0.126 0.234-0.09 0.431-0.18 0.539-0.216-0.054 0.034-0.09 0.07-0.144 0.088z"  /><path fill="#e7621e" d="M183.596 803.073c0.233 0.036 0.467 0.072 0.701 0.09-0.97 1.797-1.994 3.576-3.144 5.211-0.198 0.288-0.377 0.611-0.557 0.934-0.018 0.216-0.054 0.467-0.09 0.737 0.018-0.198 0.036-0.413 0.054-0.647-0.126 0.198-0.216 0.413-0.324 0.611 0.144-0.27 0.252-0.611 0.341-0.952v-0.018c0.054-1.096 0.054-2.39 0.234-3.18a5.59 5.59 0 0 1 0.108-0.449c-0.862-1.096-1.653-1.833-2.623-2.767l-0.108-0.108a6.583 6.583 0 0 1-0.377-0.359c-0.072-0.036-0.144-0.036-0.216-0.054 0.88 0.126 1.743 0.413 2.623 0.485 1.132 0.089 2.264 0.322 3.378 0.466zM241.253 703.013l-0.323 0.539a13.629 13.629 0 0 0-0.916 1.653 49.43 49.43 0 0 1-1.114 2.174 74.795 74.795 0 0 1-2.857-1.707 19.75 19.75 0 0 0-1.042-0.611c-0.359-0.126-0.755-0.251-1.078-0.287 0.198 0.018 0.413 0.036 0.665 0.054-0.144-0.072-0.269-0.144-0.395-0.216 0.18 0.072 0.341 0.162 0.485 0.234 1.114 0.054 2.551 0.072 3.324 0.252l0.323-0.054c0.431-0.162 0.862-0.341 1.312-0.503 0.054-0.036 0.341-0.252 0.683-0.521-2.032 1.49 1.275-1.564 0.933-1.007zM414.566 807.439c0 0.036-0.018 0.036-0.072 0.018-1.365-0.701-2.731-1.401-4.079-2.102 0.755-1.294 1.545-2.605 2.264-3.935 0.018-0.018 0.018-0.036 0.018-0.054 0.503-1.599 0.395-1.15 0.18-0.323 0.108-0.18 0.216-0.377 0.323-0.575-0.09 0.234-0.27 0.683-0.449 1.114 0 0.036-0.018 0.054-0.018 0.072-0.144 0.593-0.305 1.168-0.305 1.312-0.018 0.305-0.018 0.593-0.018 0.844a25.002 25.002 0 0 0 1.509 2.659c-0.072-0.144-0.108-0.198-0.108-0.216 0.036-0.018 0.719 0.97 0.737 1.168l0.018 0.018z"  /><path fill="#e7621e" d="M441.625 760.868c-6.396-3.899-13.062-7.456-19.584-11.158-29.413-16.782-58.843-33.563-88.256-50.345-23.232-13.26-46.41-26.664-69.731-39.78-20.519-11.535-45.188-10.637-62.329 6.864-7.654 7.834-12.667 19.279-18.039 28.694-15.829 27.76-31.676 55.537-47.506 83.297-11.966 20.986-12.308 46.5 6.342 64.072 12.505 11.787 27.508 12.649 43.373 14.859l51.854 7.223c6.037 0.844 12.074 1.689 18.129 2.533 1.15 0.162 2.318 0.359 3.486 0.485 0.359 0.036 1.096 0.252 1.707 0.449 0.198 0.216 0.413 0.449 0.629 0.719 17.86 22.136 35.45 44.523 53.166 66.785a902.596 902.596 0 0 1 3.845 4.833c0.665 0.809 1.312 1.635 1.958 2.444a17.1 17.1 0 0 0 1.815 1.958c0.036 0.054 0.072 0.09 0.108 0.108 22.513 22.747 59.975 15.667 76.397-10.763 5.839-9.397 11.014-19.297 16.494-28.927 14.625-25.622 30.023-50.938 43.912-76.972 12.954-24.31 6.019-52.843-17.77-67.378z m-28.424 39.6c-0.09 0.234-0.27 0.683-0.449 1.114 0 0.036-0.018 0.054-0.018 0.072-0.144 0.593-0.305 1.168-0.305 1.312-0.018 0.305-0.018 0.593-0.018 0.844a25.002 25.002 0 0 0 1.509 2.659c-0.072-0.144-0.108-0.198-0.108-0.216 0.036-0.018 0.719 0.97 0.737 1.168l0.018 0.018c0 0.036-0.018 0.036-0.072 0.018-1.365-0.701-2.731-1.401-4.079-2.102 0.755-1.294 1.545-2.605 2.264-3.935 0.018-0.018 0.018-0.036 0.018-0.054 0.503-1.599 0.395-1.15 0.18-0.323 0.107-0.18 0.215-0.378 0.323-0.575z m-174.877-95.425c0.431-0.162 0.862-0.341 1.312-0.503 0.054-0.036 0.341-0.252 0.683-0.521-2.03 1.491 1.276-1.563 0.934-1.006l-0.323 0.539a13.629 13.629 0 0 0-0.916 1.653 49.43 49.43 0 0 1-1.114 2.174 74.795 74.795 0 0 1-2.857-1.707 19.75 19.75 0 0 0-1.042-0.611c-0.359-0.126-0.755-0.251-1.078-0.287 0.198 0.018 0.413 0.036 0.665 0.054-0.144-0.072-0.269-0.144-0.395-0.216 0.18 0.072 0.341 0.162 0.485 0.234 1.114 0.054 2.551 0.072 3.324 0.252l0.322-0.055z m-58.106 97.563c1.132 0.09 2.264 0.323 3.378 0.467 0.233 0.036 0.467 0.072 0.701 0.09-0.97 1.797-1.994 3.576-3.144 5.211-0.198 0.288-0.377 0.611-0.557 0.934-0.018 0.216-0.054 0.467-0.09 0.737 0.018-0.198 0.036-0.413 0.054-0.647-0.126 0.198-0.216 0.413-0.324 0.611 0.144-0.27 0.252-0.611 0.341-0.952v-0.018c0.054-1.096 0.054-2.39 0.234-3.18a5.59 5.59 0 0 1 0.108-0.449c-0.862-1.096-1.653-1.833-2.623-2.767l-0.108-0.108a6.583 6.583 0 0 1-0.377-0.359c-0.072-0.036-0.144-0.036-0.216-0.054 0.88 0.125 1.743 0.412 2.623 0.484z"  /><path fill="#e7621e" d="M183.596 803.073c0.233 0.036 0.467 0.072 0.701 0.09-0.97 1.797-1.994 3.576-3.144 5.211-0.198 0.288-0.377 0.611-0.557 0.934-0.018 0.216-0.054 0.467-0.09 0.737 0.018-0.198 0.036-0.413 0.054-0.647-0.126 0.198-0.216 0.413-0.324 0.611 0.144-0.27 0.252-0.611 0.341-0.952v-0.018c0.054-1.096 0.054-2.39 0.234-3.18a5.59 5.59 0 0 1 0.108-0.449c-0.862-1.096-1.653-1.833-2.623-2.767l-0.108-0.108a6.583 6.583 0 0 1-0.377-0.359c-0.072-0.036-0.144-0.036-0.216-0.054 0.88 0.126 1.743 0.413 2.623 0.485 1.132 0.089 2.264 0.322 3.378 0.466zM241.253 703.013l-0.323 0.539a13.629 13.629 0 0 0-0.916 1.653 49.43 49.43 0 0 1-1.114 2.174 74.795 74.795 0 0 1-2.857-1.707 19.75 19.75 0 0 0-1.042-0.611c-0.359-0.126-0.755-0.251-1.078-0.287 0.198 0.018 0.413 0.036 0.665 0.054-0.144-0.072-0.269-0.144-0.395-0.216 0.18 0.072 0.341 0.162 0.485 0.234 1.114 0.054 2.551 0.072 3.324 0.252l0.323-0.054c0.431-0.162 0.862-0.341 1.312-0.503 0.054-0.036 0.341-0.252 0.683-0.521-2.032 1.49 1.275-1.564 0.933-1.007zM414.566 807.439c0 0.036-0.018 0.036-0.072 0.018-1.365-0.701-2.731-1.401-4.079-2.102 0.755-1.294 1.545-2.605 2.264-3.935 0.018-0.018 0.018-0.036 0.018-0.054 0.503-1.599 0.395-1.15 0.18-0.323 0.108-0.18 0.216-0.377 0.323-0.575-0.09 0.234-0.27 0.683-0.449 1.114 0 0.036-0.018 0.054-0.018 0.072-0.144 0.593-0.305 1.168-0.305 1.312-0.018 0.305-0.018 0.593-0.018 0.844a25.002 25.002 0 0 0 1.509 2.659c-0.072-0.144-0.108-0.198-0.108-0.216 0.036-0.018 0.719 0.97 0.737 1.168l0.018 0.018z"  /></svg>